<?xml version="1.0" encoding="utf-8"?>
<!-- Generator: Adobe Illustrator 19.0.0, SVG Export Plug-In . SVG Version: 6.00 Build 0)  -->
<svg version="1.1" id="Layer_1" xmlns="http://www.w3.org/2000/svg" xmlns:xlink="http://www.w3.org/1999/xlink" x="0px" y="0px"
	 viewBox="0 0 195.5 196.3" enable-background="new 0 0 195.5 196.3" xml:space="preserve">
<path fill="#57341B" d="M103,51.2c3.8-17.3,8.9-29.8,15.4-37.7c2.6-3.2,5.3-5.4,8.1-6.5l3.2-0.8c-2.9,5.4-7,15.2-12.2,29.5
	c-3,7.9-5.7,15.4-8.1,22.7l-1.9,1.3C106.8,56.5,105.4,53.7,103,51.2L103,51.2"/>
<path fill="#87512A" d="M103,51.2c-0.8-0.8-1.6-1.4-2.5-2c0.8-3.3,1.6-6.7,2.6-10c7-24.5,16.4-36.4,28-35.7
	c6.4,0.4,9.8,4.7,10.1,12.9c0,7-2.2,15.9-6.6,26.8c-2.3,5.7-4.8,11.1-7.6,16.2l-2.2-1.4l5.2-10.5c10.1-21.6,11.6-35.2,4.6-41
	l-4.4,20c-3,10-6.8,19.9-11.2,29.8l-1.7-0.1c-3,0-5.6,0.7-7.9,2.1c2.5-7.2,5.2-14.8,8.1-22.7c5.3-14.3,9.4-24.1,12.2-29.5L126.5,7
	c-2.8,1.2-5.5,3.3-8.1,6.5C111.9,21.4,106.8,34,103,51.2"/>
<path fill="#523119" d="M97.2,47.6c1.1-4.6,2.3-9.1,3.6-13.4c7.5-23.6,17.6-35,30.4-34.2c3.9,0.3,7,1.7,9.2,4.2
	c2.2,2.5,3.5,5.9,4,10.3c0.8,10.6-3,24.2-11.6,41c-0.8-0.1-1.5,0.2-2.2,0.8l-1.3,1.8v2.2l0.2,1.4l-0.1,0.1l-0.9-0.9l-1.7-1.4
	c2.8-5.1,5.3-10.6,7.6-16.2c4.4-10.8,6.6-19.7,6.6-26.8c-0.3-8.2-3.6-12.5-10.1-12.9c-11.7-0.7-21,11.2-28,35.7
	c-1,3.3-1.8,6.7-2.6,10C99.4,48.6,98.3,48,97.2,47.6"/>
<path fill="#DE8545" d="M118.9,56.4c4.5-9.9,8.2-19.8,11.2-29.8l4.4-20c7,5.7,5.5,19.3-4.6,41L124.7,58
	C122.9,57.1,121,56.6,118.9,56.4"/>
<path fill="#0A4209" d="M132.9,55.4c0.6,0.1,1.1,0.3,1.7,0.8l3.9,1.8l7.4,0.7c3.7-1.2,6.4-4.8,8.3-10.8L156,46l2.4-0.5l1.9,1.3
	l0.9,2.4l0.4,4.4c0.6,3.2,1.9,5.7,4,7.4c3.8,3.2,10,3.8,18.8,1.9l2.4,0.4l1.6,2v2.4l-1.8,1.9l-5.2,3.5c-2.5,2-4,4.1-4.4,6.1
	c-0.4,2.3,0.6,4.8,3.1,7.5c1.2,1.2,1.3,2.6,0.4,4.1c-0.7,1.5-1.9,2.1-3.5,1.8h-3.7c-2.6,0.1-4.8,0.9-6.4,2.4
	c-3.1,2.8-4.4,7.4-3.9,13.8c0,1.8-0.8,2.9-2.4,3.5c-1.6,0.6-2.9,0.2-3.9-1.3c-1.6-1.9-3.7-2.9-6.2-3.1l-0.9,0.1l1.8-3.6l2,0.4
	c2.6,0.7,4.7,2.1,6.1,4.1c-0.6-9.8,2.2-16,8.6-18.8l6.5-1.4l2.9,0.2c-5-5.6-5.2-11.1-0.6-16.4l5.5-4.6l2.8-1.8
	c-12.1,2.8-20.3,0.7-24.7-6.3c-1.3-2-2.2-4.5-2.6-7.5v-3.7c-3.2,9.5-8.3,14-15.3,13.6c-2.3-0.1-4.7-0.8-7-1.9l-2.9-1.8
	c0.8,2.2,0.6,4.6-0.5,7.1c-0.6-1.5-1.4-2.9-2.5-4.1v-0.2l-0.2-1.4v-2.2l1.3-1.8C131.3,55.6,132.1,55.3,132.9,55.4 M59.4,102.1
	c-2.7-2.4-5.3-3.6-7.7-3.6c-2.9,0-5.7,2-8.5,5.9l-3.1,5.9c-0.6,1.6-1.7,2.4-3.3,2.4l-0.7-0.2l-2.2-1.1l-0.6-2.4
	c0.2-5.1-1.2-9.1-4.2-12.1c-3.4-3.5-8.4-5.2-15.1-5.2h-0.9l-2.6-0.9l-1.3-2.1l0.7-2.5l1.9-1.5c8.9-2.5,14.7-7.3,17.3-14.4
	c0.9-2.3,1.3-4.8,1.3-7.5c0.2-1.5,0.1-2.6-0.2-3.3c-0.1-1.7,0.5-3,1.9-3.7l4.2,0.6c4.1,4.1,7.7,6,11,5.9c3.1,0,5.8-1.9,8.3-5.7
	l2.9-5.7c0.4-1.4,1.4-2.3,2.9-2.6c1.5-0.2,2.6,0.3,3.3,1.5c0.9,1.2,1.9,2.3,3,3.3c-1.4,0.2-2.7,0.5-4,1l-1.8-2.2l-1.5,3.8
	c-0.9,0.5-1.8,1.2-2.7,1.9c-1.9,1.5-3.5,3.8-4.8,7.1C47.4,68,41,66,33.8,58.9l0.2,3.7c0,2.9-0.5,5.7-1.5,8.4
	c-2.9,8.6-9.5,14.4-19.7,17.3h3.9l8.3,2c8,3.2,12,9.6,11.8,19c1.5-4.4,3.7-7.9,6.8-10.7c2.6-2.4,5.4-3.6,8.3-3.6
	c1.4,1.8,3.2,3.3,5.5,4.7l2.7,1.1L59.4,102.1"/>
<path fill="#10660E" d="M132.1,66c1.1-2.5,1.3-4.9,0.5-7.1l2.9,1.8c2.3,1.2,4.7,1.8,7,1.9c7,0.5,12.1-4.1,15.3-13.6v3.7
	c0.4,2.9,1.3,5.4,2.6,7.5c4.4,7,12.6,9.1,24.7,6.3l-2.8,1.8l-5.5,4.6c-4.5,5.4-4.3,10.9,0.6,16.4l-2.9-0.2l-6.5,1.4
	c-6.3,2.8-9.2,9-8.6,18.8c-1.5-2-3.5-3.4-6.1-4.1l-2-0.4l1.2-2.9l3.4,0.5c0-2.3,0.6-4.7,1.9-7c2.8-5,7.2-7.9,13.2-8.8
	c-1.6-2.8-2.4-5.7-2.4-8.8l-12.2,3.5l-2.8,1.2l-1.1-1.9l-1-1.3l5.8-2.4l12.7-4.1l-0.3,0l0.1,0l-0.9,0.1h-0.2c-3,0-5.9-1.6-8.7-4.8
	L156,62c-3.2,3.7-7.4,5.6-12.5,5.7l-6.8-1.1c0.1,1.5-0.8,3.5-2.8,6l-0.7-0.1v-0.2C133.2,70,132.8,67.9,132.1,66 M52.9,64.7
	c-0.5,1.1-0.9,2.3-1.3,3.6l-9.8,0.2l-5.2-2.6c0.9,3.5-1,7.9-5.7,13.1l-7.4,6.8c7.9-4.7,14.7-7.4,20.3-8.1l5.8,0.2L49,82.5l-14.5,0.7
	l-7,3.8c4.2,1.4,7.3,4.2,9.2,8.3c1,2.2,1.6,4.3,1.6,6.2c0.9-2.2,3-4.1,6.3-5.7c2.1-1,4.2-1.8,6.4-2.2l1,1.5c-2.9,0-5.6,1.2-8.3,3.6
	c-3.1,2.8-5.3,6.3-6.8,10.7c0.2-9.5-3.8-15.8-11.8-19l-8.3-2h-3.9C23,85.4,29.6,79.6,32.5,71c1-2.6,1.5-5.4,1.5-8.4l-0.2-3.7
	C41,66,47.4,68,52.9,64.7 M60.4,55.8l1.5-3.8l1.8,2.2C62.5,54.6,61.4,55.2,60.4,55.8"/>
<path fill="#5AFF57" d="M136.7,66.6l6.8,1.1c5.1-0.1,9.3-2,12.5-5.7l3.9,6.1c2.8,3.1,5.7,4.7,8.7,4.8h0.2l0.9-0.1l-0.1,0l-6.9,2.2
	l-7.4-7.9c-0.7,2.3-3.5,3.6-8.4,3.8l-7-0.2c-0.7,0.8-1.7,1.6-3,2.2l-3-0.2C135.9,70.1,136.8,68.1,136.7,66.6 M23.3,85.9l7.4-6.8
	c4.7-5.3,6.6-9.6,5.7-13.1l5.2,2.6l9.8-0.2c-0.4,1.3-0.8,2.7-1.1,4.2l-6.6,0.4l-4.2-0.9C38.7,74.7,33.2,79.3,23.3,85.9"/>
<path fill="#24AD21" d="M23.3,85.9c9.9-6.6,15.4-11.2,16.4-13.8l4.2,0.9l6.6-0.4L50,74.3L49.4,78l-5.8-0.2
	C38,78.5,31.2,81.2,23.3,85.9 M133.9,72.6c2-2.5,2.9-4.5,2.8-6C136.8,68.1,135.9,70.1,133.9,72.6L133.9,72.6 M169.7,72.8l0.3,0
	l-12.7,4.1l-5.8,2.4c-3.1-3.7-8-5.9-14.5-6.6c1.3-0.7,2.3-1.4,3-2.2l7,0.2c4.8-0.2,7.6-1.4,8.4-3.8l7.4,7.9L169.7,72.8 M153.6,82.5
	l2.8-1.2l12.2-3.5c0,3.1,0.8,6,2.4,8.8c-6,0.9-10.4,3.8-13.2,8.8c-1.3,2.3-1.9,4.7-1.9,7l-3.4-0.5l1.4-3.6c1.2-3.1,1.6-6.2,1.4-9.4
	C155.1,86.4,154.5,84.4,153.6,82.5 M50.9,93.5c-2.2,0.4-4.3,1.2-6.4,2.2c-3.4,1.6-5.5,3.5-6.3,5.7c0-1.9-0.5-4-1.6-6.2
	c-1.9-4.1-5-6.9-9.2-8.3l7-3.8L49,82.5c-0.2,3.8,0.2,6.9,1.1,9.2L50.9,93.5"/>
<path fill="#4A4013" d="M124.9,121.9l-1.1,6.2c-1,7-1.2,12.1-0.4,15.4c1.8,1.7,2.6,3.8,2.6,6.1l-5.1,16.7l-7.9,5.2
	c-5.7,2.7-11.9,4.2-18.6,4.4c-1.1,2-2.4,3.8-4.1,5.4c-4.5,4.5-9.9,6.8-16.2,6.8c-6.3,0-11.6-2.3-16-6.8c-4.5-4.4-6.8-9.7-6.8-15.9
	c0-1.5,0.1-2.9,0.4-4.3c-3.5-2.7-6.6-5.6-9.3-8.8c-5.8-6.7-8.1-12.1-6.8-16.2l6.2-17.1l2.6-2.4l3.5-1.1l7.9-7.9
	c1.4-1.8,2.7-3.6,3.7-5.4l0.8-1.4l3.5,0.9l-1.3,2.5l-0.1-0.1c-1.7,2.9-3.6,5.7-5.8,8.3l-7.5,6.8l-2.4,0.2l-1.9,1.5l-5.7,16.2
	c-0.8,2.4,0.7,5.9,4.4,10.6l0,0.1c1.9,2.5,4.2,5,6.9,7.2c1.4,1.3,2.9,2.5,4.6,3.7c4.3,3.2,9.2,5.9,14.8,8.3l0.6,0.2l0.7,0.3l1.4,0.6
	c12.3,4.8,23.6,5.6,33.9,2.4c5.1-1.8,9.1-3.9,11.9-6.4l4.6-14.7l-1.1-3.1l-1.1-0.9l-0.2-0.8c-0.5-2.1-0.7-5.2-0.4-9.4
	c0.1-4.7,0.8-9.4,1.9-14.2h-0.1l0.1-0.4L124.9,121.9 M54.9,163.4l-0.1,2c0,5.2,1.9,9.8,5.7,13.6c3.8,3.8,8.3,5.7,13.6,5.7
	c5.4,0,9.9-1.9,13.6-5.7l2.6-3.1c-6.1-0.3-12.6-1.8-19.4-4.3C64.9,169.2,59.6,166.5,54.9,163.4"/>
<path fill="#73641D" d="M54.9,163.4c4.7,3.1,10,5.8,15.9,8.1c6.9,2.6,13.3,4,19.4,4.3l-2.6,3.1c-3.6,3.8-8.2,5.7-13.6,5.7
	c-5.3,0-9.8-1.9-13.6-5.7c-3.8-3.8-5.7-8.3-5.7-13.6L54.9,163.4 M121.6,121.1c-6.8-1.5-11.9-4.3-15.2-8.6l-7.7,0.2
	c-5.5-1-9.1-4-10.7-8.9c-2.6,1.2-5.6,2-9,2.6c-6.9,1.3-12.4,0.6-16.6-2.3l1.3-2.5l6.9,0.6c5.8,0,11.3-1.2,16.4-3.5
	c4.2,6.1,9.5,9.2,15.8,9.2l5-0.7c2.3,3.8,4.9,6.9,7.7,9.4c2,1.7,4.1,3.1,6.2,4L121.6,121.1 M56.4,112.3l-2.9,3.1l-4.6,3.7l4.8,6.8
	l0.4,0.6l0,0.1l0.5,0.6c3,3.8,6.4,7.1,10,10l2.9,2.1c13.9,10.3,29,13.2,45.3,8.9l0.2-0.1c2.4-0.7,4.8-1.5,7.2-2.4l1.1,0.9l1.1,3.1
	c-6.4,2.3-14,3.6-22.8,3.8c-14.7,0.1-27.4-4-38.1-12.3l-11.2-11.3v0.1l-0.9-1.2l-5-7.7l1.9-1.5l2.4-0.2L56.4,112.3 M50.1,155.1
	l0.3,0.3l2.9,2.4l1.3,1C53,157.6,51.5,156.4,50.1,155.1 M87,176.7l-6.3-0.4l-10.1-1.8c-1.2-0.5-2-0.2-2.4,0.9l-0.2,3.3
	c1,3.1,3.1,4.6,6.2,4.5h0.4l1.1-0.1c3.8-0.6,6.6-1.5,8.5-2.9L87,176.7"/>
<path fill="#FFE76E" d="M87,176.7l-2.8,3.5c-1.9,1.3-4.7,2.3-8.5,2.9l-1.1,0.1h-0.4c-2,0-3.6-0.8-4.9-2.3c5.2,0.1,9.4-1.3,12.4-4.4
	L87,176.7 M112.9,148.1l-11.2,1.7l0.2-1.4c1-8.3,2.9-17.6,5.5-28v-0.1c2.6,1.2,5.1,2.7,7.4,4.6c-1.6,5.7-2.2,13.5-1.8,23.2
	L112.9,148.1 M99.5,155.7c5-0.3,10.1-1.3,15.3-3.1l-4.1,16l-5,1.9l-5,1.2l-5.6,0.6L99.5,155.7"/>
<path fill="#CFB535" d="M62.4,104.1c4.1,2.9,9.6,3.6,16.6,2.3c3.4-0.6,6.4-1.4,9-2.6c1.6,5,5.2,7.9,10.7,8.9l7.7-0.2
	c3.3,4.2,8.4,7.1,15.2,8.6h0.1c-1.2,4.8-1.8,9.5-1.9,14.2c-0.3,4.2-0.1,7.3,0.4,9.4l0.2,0.8c-2.4,1-4.8,1.8-7.2,2.4
	c-0.4-9.8,0.2-17.5,1.8-23.2c-2.4-1.9-4.9-3.4-7.4-4.6v0.1L107,120c-5.4-2.2-8.7-1.2-9.8,3.1c-1.3,5.3-4.6,13.8-9.9,25.7l14.7-0.4
	l-0.2,1.4l11.2-1.7c-16.3,4.4-31.4,1.4-45.3-8.9l-2.9-2.1l3.9-5.5l5.1-9.4c2.9-7,2.8-11.3-0.5-13c-1.3-0.6-2.7-0.6-4.1,0
	c-1.6,0.6-2.7,1.5-3.3,2.7c-1.3,2.9-3.2,5.9-5.6,8.8l-5.9,5.8l-0.4-0.6l-4.8-6.8l4.6-3.7l2.9-3.1c2.2-2.6,4.2-5.4,5.8-8.3
	L62.4,104.1 M62.9,143.3c3.1,2.7,6.5,4.9,10.1,6.7c3.9,2,7.9,3.5,11.9,4.5l-5.4,16.1c7.5,2,14.5,2.4,21.1,1.2l5-1.2l5-1.9l4.1-16
	l7.7-3.1l-4.6,14.7c-2.8,2.5-6.7,4.6-11.9,6.4c-10.4,3.2-21.7,2.4-33.9-2.4l-1.4-0.6l-0.7-0.3l-0.6-0.2c-5.6-2.4-10.5-5.1-14.8-8.3
	l-1.3-1l3.2,2.3L62.9,143.3 M50.5,129.7l-7.2,18c-3.7-4.7-5.2-8.2-4.4-10.6l5.7-16.2l5,7.7L50.5,129.7 M54.7,127.1l10,10
	C61.1,134.2,57.7,130.9,54.7,127.1 M74.2,183.2c-3.1,0.1-5.2-1.4-6.2-4.5l0.2-3.3c0.4-1,1.2-1.3,2.4-0.9l10.1,1.8l6.3,0.4l-5.2-0.2
	c-3.1,3.1-7.2,4.5-12.4,4.4C70.6,182.4,72.2,183.2,74.2,183.2"/>
<path fill="#8F0C0C" d="M124.4,73.3l-5.6,0.5l-0.5-0.6l-1.4-1.5c-1.2-1.2-2.6-2.1-3.9-2.9c-1.8-1-3.7-1.7-5.8-2.1l0.4-2.3
	c0.3-0.4,0.6-0.8,0.9-1.1c2.5-2.3,5.4-3.5,8.8-3.5h0.1c2.1,0,4,0.4,5.7,1.3c0.8,0.4,1.5,0.8,2.2,1.4l0.9,0.8l1.5,1.8l0.5,0.9
	c0.7,1.3,1.2,2.7,1.4,4.2l0.1,2v0.5l-1.5,0.2l0.1-1.2l0.1-1.7l-1.2-2.6l-0.5-0.9c-0.7-1.1-1.4-2-2.3-2.7l-2.2-1.4
	c-1-0.5-2.1-0.8-3.2-0.9l-6.3,0.4l4.3,1.5l3.9,4.8l0.4,0.6l2.1,3.2v0.1L124.4,73.3 M86.8,52.4l4.6,1.5l3.7,4.9l2.6,3.9
	c1,1.3,1.9,2.1,2.6,2.5c1.5,0.8,2.4-0.8,2.4-4.6l-1.1-2.7c-0.7-1.3-1.5-2.3-2.4-3.1c-1-0.9-2-1.6-3.2-2.1l-2.7-0.6L86.8,52.4
	 M97.3,67.2l-10.5-8.8l-5.4-3l1.5-1.8c2.3-2.3,5.2-3.5,8.8-3.5c1.7,0,3.3,0.3,4.8,0.8c1.2,0.5,2.2,1.1,3.2,1.9l0.8,0.7l1.7,2
	c1.4,2,2.1,4.4,2.1,6.9c0,1.3-0.2,2.6-0.6,3.8H103L97.3,67.2"/>
<path fill="#59090F" d="M97.3,67.2l5.7-0.9h0.6c0.4-1.2,0.6-2.4,0.6-3.8c0-2.6-0.7-4.9-2.1-6.9l-1.7-2L99.6,53
	c-1-0.8-2.1-1.5-3.2-1.9c-1.4-0.6-3-0.8-4.8-0.8c-3.5,0-6.4,1.2-8.8,3.5l-1.5,1.8l5.4,3L97.3,67.2 M149.6,108.2l-2.8,4.5
	c-3.9,5.4-9,8.6-15.1,9.5l-2.4,0.2l-4.4-0.6l-3.2-1.1c-2.1-0.9-4.2-2.3-6.2-4c-2.8-2.5-5.4-5.6-7.7-9.4l-5,0.7
	c-6.3,0-11.6-3.1-15.8-9.2c-5.1,2.3-10.6,3.5-16.4,3.5l-6.9-0.6l-3.5-0.9l-2.7-1.1c-2.3-1.3-4.2-2.9-5.5-4.7l-1-1.5L50,91.8
	c-0.9-2.3-1.2-5.4-1.1-9.2l0.5-4.5l0.6-3.7l0.4-1.8c0.3-1.5,0.7-2.9,1.1-4.2c0.4-1.3,0.8-2.5,1.3-3.6c1.3-3.3,2.9-5.6,4.8-7.1
	c0.9-0.7,1.8-1.3,2.7-1.9c1.1-0.6,2.2-1.2,3.3-1.6c1.3-0.5,2.6-0.8,4-1l2.9-0.2c2.4,0,4.8,0.4,7.3,1.2c0.6-1.1,1.4-2.1,2.3-2.9
	c3.2-3.1,7-4.6,11.4-4.6c2,0,3.8,0.3,5.6,0.9c1.1,0.4,2.2,0.9,3.2,1.6c0.9,0.6,1.7,1.2,2.5,2l0.1,0.1c2.4,2.4,3.8,5.2,4.4,8.4
	l1.9-1.3c2.3-1.4,5-2.1,7.9-2.1l1.7,0.1c2.1,0.2,4,0.7,5.8,1.6l2.2,1.4l1.7,1.4l0.9,0.9l0.1,0.1c1.1,1.2,1.9,2.6,2.5,4.1
	c0.8,1.9,1.1,4,1.1,6.2v0.2l0.7,0.1h0.1l3,0.2c6.5,0.7,11.4,2.9,14.5,6.6l1,1.3l1.1,1.9c0.9,1.9,1.5,3.9,1.8,6.2
	c0.3,3.2-0.1,6.3-1.4,9.4l-1.4,3.6l-1.2,2.9L149.6,108.2 M128.2,72.9l1.5-0.2v-0.5l-0.1-2c-0.2-1.5-0.7-2.9-1.4-4.2l-0.5-0.9
	l-1.5-1.8l-0.9-0.8c-0.7-0.5-1.5-1-2.2-1.4c-1.7-0.9-3.6-1.3-5.7-1.3h-0.1c-3.4,0-6.3,1.2-8.8,3.5c-0.4,0.3-0.7,0.7-0.9,1.1
	l-0.4,2.3c2.1,0.4,4,1.1,5.8,2.1c1.4,0.8,2.7,1.7,3.9,2.9l1.4,1.5l0.5,0.6l5.6-0.5L128.2,72.9 M112.2,72.7l-1.1-0.7
	c-1.8-1-3.7-1.7-5.7-1.9c-1.5-0.2-3-0.2-4.6,0c-1.4,0.1-2.8,0.4-4.3,0.9l-0.4,0.1l-2.8-3c-2.7-2.7-5.8-5.1-9.2-7.3
	c-4.4-2.7-8.5-4.1-12.4-4.4L66.6,57c-2.3,0.6-4.6,1.6-6.7,3.2c-2.8,2.2-4.9,7.1-6.4,14.7c-0.6,2.9-1,5.5-1.1,7.8
	c-0.2,3.3,0.1,5.9,0.9,7.8c0.4,0.9,0.9,1.8,1.5,2.6c1.5,2,3.8,3.5,6.8,4.5l3.4,0.9l2.3,0.3c7.4,0.7,14.4-0.8,21.1-4.6l5.2,6.8
	c4.7,3.9,9.9,4.6,15.8,1.9l5.9,8.6c2.3,2.6,4.8,4.6,7.3,5.8l3.2,1.2l5.4,0.3c5.1-0.7,9.3-3.4,12.7-7.9l6.8-14
	c1.9-5,1.8-9.3-0.1-12.8c-0.6-1.1-1.4-2.1-2.4-3.1l-0.1-0.1c-3.7-3.5-9.4-5.1-17.2-4.8l-7.8,0.8l-5.6,1L112.2,72.7"/>
<path fill="#DB2F2F" d="M128.2,72.9l-3.8,0.4l-0.9-1.2v-0.1l-2.1-3.2l-0.4-0.6l-3.9-4.8l-4.3-1.5l6.3-0.4c1.2,0.1,2.2,0.4,3.2,0.9
	l2.2,1.4c0.9,0.7,1.6,1.6,2.3,2.7l0.5,0.9l1.2,2.6l-0.1,1.7L128.2,72.9 M86.8,52.4l6.6-0.4l2.7,0.6c1.2,0.5,2.2,1.2,3.2,2.1
	c0.9,0.8,1.7,1.9,2.4,3.1l1.1,2.7c-0.1,3.9-0.9,5.4-2.4,4.6c-0.7-0.3-1.6-1.2-2.6-2.5l-2.6-3.9l-3.7-4.9L86.8,52.4"/>
<path fill="#D61627" d="M112.2,72.7l5.2,5l5.6-1l7.8-0.8c7.8-0.3,13.5,1.3,17.2,4.8l0.1,0.1c1,1,1.8,2,2.4,3.1c2,3.5,2,7.8,0.1,12.8
	l-6.8,14c-3.4,4.5-7.6,7.2-12.7,7.9l-5.4-0.3l-3.2-1.2c-2.5-1.2-5-3.2-7.3-5.8l-5.9-8.6c-5.8,2.6-11.1,2-15.8-1.9l-5.2-6.8
	c-6.6,3.8-13.6,5.3-21.1,4.6L65,98.4l-3.4-0.9c-3-1-5.3-2.5-6.8-4.5c-0.6-0.8-1.1-1.7-1.5-2.6c-0.8-1.8-1.1-4.4-0.9-7.8
	c0.1-2.3,0.5-4.9,1.1-7.8c1.5-7.6,3.6-12.5,6.4-14.7c2.1-1.6,4.4-2.7,6.7-3.2l5.2-0.5c3.9,0.2,8,1.7,12.4,4.4
	c3.4,2.2,6.5,4.6,9.2,7.3l2.8,3l0.4-0.1c1.5-0.5,2.9-0.8,4.3-0.9c1.6-0.2,3.1-0.2,4.6,0c2,0.3,3.9,0.9,5.7,1.9L112.2,72.7
	 M93.8,71.2c-2.5-2.8-5.5-5.3-9.2-7.7c-7.3-4.8-14-6.2-20.2-4.1l-1.8,2.9c-1.2,2.3-1.4,4.3-0.8,5.9c0.6,1,5.2,1.6,13.8,1.8
	c8.9,0.3,14.2,1.5,15.9,3.7c2.1,2.8,3.2,3.3,3.3,1.6C95,73.5,94.7,72.2,93.8,71.2 M112.2,83l2.7,2.9c0.9,0.1,1.5-1,1.9-3.3
	c0.9-3.9-1.2-6.8-6.4-8.6l-7.9-1.3C104.9,74,108.1,77.5,112.2,83 M107.4,102.9l1.8-2.4l-4.6,0.9l-2.2-0.4c2-1.2,3.6-3.6,4.6-7.2
	l1.1-5.2l-0.7,1.4l-2.1,3l-3.4,3.2l-3.7,2.4c-2.1,0.3-3.7-0.5-4.8-2.4l-1.1-3.1v4.2c0.7,2.2,2.4,3.8,5.1,4.8L107.4,102.9
	 M118.4,80.8l-0.4,6.6c-0.7,4.7-2.1,7.8-4,9.2l7.9,5.2c5.5,4.1,9.4,8.1,11.6,12.1l-2-5.7c-2.3-4.7-6.3-9-11.8-12.9
	C120.2,89.5,119.8,84.6,118.4,80.8 M96.7,73.8l-0.2,2.6l-1.8,5.3l-8.5-7.1l3.2,3.9c2.4,2.9,3.5,5.1,3.5,6.6c-1.3,2-2.9,3.3-4.8,3.9
	l-0.2,2.6c0,1.5,0.6,1.5,1.8,0.2l4.8-5C97.4,82.6,98.1,78.2,96.7,73.8 M123.2,108l-9.9-6.4c0.3,3.7,2.6,7.5,6.8,11.6l2.9,2.5
	c1.1,0.8,2.2,1.3,3.2,1.6c1.4,0.4,2.6,0.2,3.5-0.6c0.6-0.5,0.7-1.1,0.5-1.8c-0.3-0.8-0.9-1.8-2-2.9l-2.7-2.3L123.2,108 M127.6,79.9
	c9.6,1.3,15.2,5.6,16.8,12.8l1.1,9.6l2.6-2.4l2.2-8.1c1.2-6.9-2.3-10.9-10.5-12l-8.4-0.2L127.6,79.9 M55.9,91.3l7-2.6
	c6.1-1.3,13-1.3,20.8,0l-7.4-2.7l-15.6-2.6c-1.6,0-2.3-3.2-2.2-9.7l1.1-10.5L55.9,74C53.7,82.5,53.7,88.3,55.9,91.3 M86.8,92.2
	l-10.1-1.4l-9.6,0.5c-1.5,0.3-2.8,0.6-3.9,1.1c-0.6,0.3-1.1,0.6-1.6,0.8c-1.9,1.4-1.7,2.4,0.5,2.9l3.5,0.5l5,0.1
	C80.1,96.5,85.5,95,86.8,92.2"/>
<path fill="#B01120" d="M107.4,102.9l-10.1-0.9c-2.6-1-4.3-2.6-5.1-4.8v-4.2l1.1,3.1c1.2,1.9,2.8,2.7,4.8,2.4l3.7-2.4l3.4-3.2l2.1-3
	l0.7-1.4l-1.1,5.2c-1,3.7-2.6,6.1-4.6,7.2l2.2,0.4l4.6-0.9L107.4,102.9 M118.4,80.8c1.4,3.8,1.9,8.6,1.3,14.4
	c5.5,3.9,9.5,8.2,11.8,12.9l2,5.7c-2.2-3.9-6.1-7.9-11.6-12.1l-7.9-5.2c1.9-1.4,3.2-4.5,4-9.2L118.4,80.8 M55.9,91.3
	c-2.2-3.1-2.2-8.8,0-17.3l3.8-10.7l-1.1,10.5c-0.1,6.4,0.6,9.7,2.2,9.7l15.6,2.6l7.4,2.7c-7.8-1.3-14.7-1.3-20.8,0L55.9,91.3"/>
<path fill="#F0D23D" d="M101.9,148.4l-14.7,0.4c5.2-11.8,8.5-20.4,9.9-25.7c1.2-4.2,4.4-5.2,9.8-3.1l0.5,0.3
	C104.8,130.8,102.9,140.1,101.9,148.4 M85,154.5c4.7,1.1,9.6,1.5,14.6,1.2l-4.4,16.6l5.6-0.6c-6.6,1.2-13.6,0.8-21.1-1.2L85,154.5"
	/>
<path fill="#730C14" d="M96.7,73.8c1.5,4.4,0.7,8.8-2.2,13.2l-4.8,5c-1.2,1.3-1.8,1.3-1.8-0.2l0.2-2.6c1.9-0.6,3.5-1.9,4.8-3.9
	c0-1.5-1.2-3.7-3.5-6.6l-3.2-3.9l8.5,7.1l1.8-5.3L96.7,73.8 M123.2,108l2.3,1.8l2.7,2.3c1.1,1.1,1.7,2.1,2,2.9
	c0.2,0.7,0.1,1.3-0.5,1.8c-1,0.8-2.1,1-3.5,0.6c-1-0.3-2-0.8-3.2-1.6l-2.9-2.5c-4.2-4.1-6.5-7.9-6.8-11.6L123.2,108 M86.8,92.2
	c-1.3,2.8-6.7,4.3-16.2,4.6l-5-0.1l-3.5-0.5c-2.2-0.6-2.4-1.6-0.5-2.9c0.4-0.3,0.9-0.6,1.6-0.8c1.1-0.5,2.4-0.8,3.9-1.1l9.6-0.5
	L86.8,92.2"/>
<path fill="#A8932B" d="M54.2,126.5l5.9-5.8c2.5-2.9,4.4-5.8,5.6-8.8c0.6-1.2,1.7-2.1,3.3-2.7c1.5-0.6,2.8-0.6,4.1,0
	c3.2,1.6,3.4,6,0.5,13l-5.1,9.4l-3.9,5.5l-10-10L54.2,126.5L54.2,126.5 M61.6,141c-2.1-1.6-4-3.3-5.9-5.2l4.4,5.1l2.8,2.5l-6.3,16.8
	l-3.2-2.3l-2.9-2.4l-0.3-0.3c-2.7-2.3-5-4.7-6.9-7.2l0-0.1l7.2-18v-0.1L61.6,141"/>
<path fill="#FFF3B5" d="M61.6,141c10.7,8.3,23.4,12.4,38.1,12.3c8.8-0.2,16.4-1.4,22.8-3.8l-7.7,3.1c-5.2,1.8-10.3,2.8-15.3,3.1
	c-5,0.3-9.9-0.1-14.6-1.2c-4.1-1-8.1-2.5-11.9-4.5c-3.6-1.8-7-4-10.1-6.7l-2.8-2.5l-4.4-5.1C57.6,137.7,59.5,139.4,61.6,141"/>
<path fill="#F54252" d="M93.8,71.2c0.9,1,1.2,2.4,1.1,3.9c-0.1,1.8-1.2,1.2-3.3-1.6c-1.7-2.2-7.1-3.4-15.9-3.7
	c-8.6-0.1-13.2-0.7-13.8-1.8c-0.6-1.6-0.3-3.6,0.8-5.9l1.8-2.9c6.1-2.1,12.9-0.7,20.2,4.1C88.3,65.9,91.3,68.4,93.8,71.2 M112.2,83
	c-4.1-5.6-7.3-9-9.6-10.3l7.9,1.3c5.1,1.8,7.2,4.6,6.4,8.6c-0.4,2.3-1.1,3.4-1.9,3.3L112.2,83 M127.6,79.9l3.9-0.4l8.4,0.2
	c8.2,1.2,11.7,5.2,10.5,12l-2.2,8.1l-2.6,2.4l-1.1-9.6C142.8,85.5,137.2,81.3,127.6,79.9"/>
</svg>
