<?xml version="1.0" encoding="utf-8"?>
<!-- Generator: Adobe Illustrator 19.0.0, SVG Export Plug-In . SVG Version: 6.00 Build 0)  -->
<svg version="1.1" id="Layer_1" xmlns="http://www.w3.org/2000/svg" xmlns:xlink="http://www.w3.org/1999/xlink" x="0px" y="0px"
	 viewBox="-267 136.6 200.5 328.4" style="enable-background:new -267 136.6 200.5 328.4;" xml:space="preserve">
<style type="text/css">
	.st0{fill:#D43535;}
	.st1{fill:#8F2424;}
	.st2{fill:#BDDDFC;}
	.st3{fill:#E8F6FF;}
	.st4{fill:#1C1A1A;}
	.st5{fill:#F28D38;}
	.st6{fill:#F2C572;}
	.st7{fill:#5E4D2C;}
	.st8{fill:#232121;}
	.st9{fill:#822020;}
	.st10{fill:#423F3F;}
	.st11{fill:#757B80;}
</style>
<g>
	<path class="st0" d="M-106.9,321.6c-2.1-0.3-3.1-0.6-3.1-1.1c0-0.5,1-0.9,3.1-1.2l7.4-0.4l7.4,0.4c2,0.4,3,0.8,3,1.2
		c0,0.5-1,0.9-3,1.1l-7.4,0.5L-106.9,321.6 M-139.4,314.1c1.2-0.9,2.2-1.4,3.2-1.4c1.8-0.1,4,0.9,6.7,2.9c4.1,3.1-1.1,6.6-15.6,10.7
		c-11.5,3.3-20.1,5.1-25.6,5.5c-1.9,0.1-3-0.5-3.5-1.8c-0.4-1.3,0.6-2.2,2.9-2.5c7.2-1,14.6-3.6,22.4-7.7L-139.4,314.1
		 M-143.6,313.4l-8.4,5.6c-6.6,3.8-12.5,5.9-17.7,6.3c-1.3,0.1-2.1-0.6-2.5-2.1c-0.4-1.4-0.2-3.1,0.5-5c1.8-4.8,5.4-7.2,10.6-7.2
		l8.5,0.5L-143.6,313.4 M-210.6,314.3c-1.6,1.6-2.4,5.8-2.3,12.6c0,2.8-0.2,4.8-0.5,5.9c-0.5,1.6-1.5,2.3-3,2
		c-3.8-0.6-5.6-1.9-5.3-4c1-7,3.1-11.9,6.4-14.6c1.1-0.9,2.2-1.4,3.3-1.8L-210.6,314.3 M-189,304l15.1-0.1
		c-3.8,0.9-6.5,4.9-8.1,12.2c-1.2,5.1-2,13.1-2.5,24c-0.6,14.6-1,23.2-1.3,25.7c-0.8,8.7-2.3,14.5-4.6,17.3
		c-4.5,5.6-10.1,5.4-16.5-0.7c-2.3-2.2-4.1-4.6-5.2-7.1c-1.2-2.5-1.2-3.9-0.1-4.3c1.6-0.6,2.6-8.6,2.9-24c0.4-18,1.3-29.6,2.9-34.9
		C-205.1,307.6-199.3,304.9-189,304"/>
	<path class="st1" d="M-189,304c-10.3,1-16.1,3.6-17.4,8c-1.6,5.3-2.6,16.9-2.9,34.9c-0.3,15.4-1.2,23.4-2.9,24
		c-1.1,0.4-1.1,1.8,0.1,4.3c1.1,2.5,2.9,4.9,5.2,7.1c6.5,6.1,12,6.3,16.5,0.7c2.3-2.8,3.8-8.5,4.6-17.3c0.3-2.5,0.7-11.1,1.3-25.7
		c0.5-10.9,1.3-18.9,2.5-24c1.7-7.3,4.4-11.3,8.1-12.2L-189,304 M-139.8,312.1l1.7-0.2c2-0.3,5.1,0.9,9.3,3.6
		c2.3,1.5,2.1,3.3-0.4,5.4l-1.1,0.7c-4.6,3.1-13.8,6.2-27.6,9.5c-5.4,1.3-12.1,2.4-19.9,3.4c-0.6,3.9-1.2,8.4-1.7,13.5l-2.3,23.7
		c-0.5,3.4-1,6.3-1.6,8.7c-0.2,0.6-0.4,1.3-0.6,1.9c-0.7,2.2-1.5,3.9-2.3,5.1c-2.1,2.7-5.8,3.5-11,2.5c-4.4-0.9-9.4-2.9-14.8-6.2
		c-4.6-2.8-8.4-5.6-11.3-8.5l-0.6-0.7c-3-3.3-3.7-5.4-2.2-6.3c3.1-1.8,6-7.2,8.9-16.2l0.1-0.5c1.5-4.6,2.7-9.6,3.8-14.9
		c-3.6-0.4-6.2-1.1-7.7-2.1c-1.1-0.7-1.6-1.6-1.6-2.7c-0.1-1.5,0-3.3,0.4-5.4c0.7-4.1,2.4-7.6,4.9-10.4c0.8-0.9,2.2-1.6,4.3-2.3
		c1.4-0.5,3.1-0.9,5.2-1.3c1.9-3.4,4.7-5.7,8.4-7c2.4-0.9,5.5-1.5,9.5-1.8l10.4-0.7c5.8-0.6,10.6,0.5,14.4,3.1
		c1.8,1.2,3.2,2.5,4,3.9c7,0.2,11.9,0.8,14.9,1.7C-144.2,312.1-142.1,312.3-139.8,312.1 M-118.4,325.5l0.9-1.2
		c2.3-2.8,5.5-4.8,9.6-6c6.4-1.1,13.1-1.1,20.1,0c1.4,0.4,2.7,1.3,3.8,2.7c1.1,1.5,1.2,2.7,0.4,3.5l-8.9,0.7
		c2.3,0.6,5.2,2.1,8.5,4.3c4.4,3.1,6.4,6.1,6.1,9c-0.7,5.9-3.3,9.8-7.9,11.8l-4.8,1.1c-2.1-3.2-4.4-6.3-6.9-9.1
		C-103.7,335.1-110.6,329.5-118.4,325.5 M-106.9,321.6l7.4,0.5l7.4-0.5c2-0.3,3-0.6,3-1.1c0-0.5-1-0.9-3-1.2l-7.4-0.4l-7.4,0.4
		c-2.1,0.4-3.1,0.8-3.1,1.2C-110,321-109,321.4-106.9,321.6 M-139.4,314.1l-9.5,5.8c-7.7,4.1-15.2,6.7-22.4,7.7
		c-2.4,0.4-3.4,1.2-2.9,2.5c0.4,1.4,1.6,2,3.5,1.8c5.5-0.4,14-2.3,25.6-5.5c14.5-4.1,19.7-7.7,15.6-10.7c-2.7-2-4.9-3-6.7-2.9
		C-137.2,312.8-138.3,313.2-139.4,314.1 M-143.6,313.4l-9-1.8l-8.5-0.5c-5.2,0-8.8,2.4-10.6,7.2c-0.7,1.9-0.9,3.6-0.5,5
		c0.4,1.5,1.2,2.2,2.5,2.1c5.2-0.4,11.1-2.5,17.7-6.3L-143.6,313.4 M-210.6,314.3l-1.4,0.2c-1.1,0.3-2.2,0.9-3.3,1.8
		c-3.3,2.7-5.4,7.6-6.4,14.6c-0.3,2.1,1.5,3.4,5.3,4c1.5,0.2,2.5-0.4,3-2c0.3-1.1,0.5-3.1,0.5-5.9
		C-213,320.1-212.2,315.9-210.6,314.3"/>
	<path class="st2" d="M-123.4,286.4c-0.8,8-4.6,15.2-11.4,21.6l-5,4.1c-2.3,0.2-4.5,0-6.4-0.7c-3-0.9-8-1.5-14.9-1.7
		c-0.8-1.4-2.1-2.6-4-3.9c-3.8-2.6-8.7-3.6-14.4-3.1l-10.4,0.7c-4,0.3-7.1,0.9-9.5,1.8c-3.6,1.3-6.4,3.7-8.4,7
		c-2,0.4-3.7,0.8-5.2,1.3c-7-5.2-11.2-11.8-12.8-20l1.7-1.5l-0.6,0c-2.1-15.8,7.1-27.9,27.8-36.5c13.3-5.5,27.5-8.6,42.5-9.4
		c5.3-0.3,10.1,1,14.2,3.8c2.1,1.5,4.6,3.5,7.5,6c5,6.1,8,13.6,9.1,22.4c0.3,2,0.4,3.9,0.3,5.7l-2.1-0.1l0.8-8.3
		c0.4-3.4-1.4-8-5.4-13.6c-0.4-0.5-1-1-1.8-1.5l-0.9-0.8c-1.5-1.2-3.1-1.7-4.7-1.5l-2.4-0.8l-8.1-1c-5.6-0.6-8.8-0.6-9.8-0.1
		c-0.9,0.4-3.3,1.3-7.2,2.6l-1.4,0.5c-1.6-0.7-3.2-0.9-4.9-0.5c-2.3,0.6-4.1,2-5.3,4.4l-0.3,0.7c-1.3,0.7-2.6,1.6-3.9,2.6
		c-3.3,2.4-5.9,4.7-7.7,6.8c-1.4,1.6-2,3.9-1.6,6.8l0.8,7.4c-0.1,1.9,0.4,3.6,1.5,5l4,4.5c1.4,2.1,3.6,3.5,6.6,4.2l7.9,0.5l29.3-3.9
		c3.8-0.9,6.6-2.1,8.4-3.5c3.4-2.6,5.4-5.4,6.2-8.4L-123.4,286.4 M-129.2,320.9c3.8,1.2,7.4,2.8,10.8,4.6
		c7.8,4.1,14.7,9.7,20.8,16.7c2.5,2.8,4.8,5.9,6.9,9.1c9.3,14.1,15.3,31.7,18,52.9c2.5,19.5-4.1,34.6-19.8,45.3
		c-14.6,10-35.1,15-61.4,15.1l-37.6-0.1c-12.8-0.4-23-1.5-30.7-3.3c-9.3-2.3-16.4-5.9-21.5-10.9c-5.6-5.6-9-13.2-10.2-22.9
		c-3.4-26.7-0.8-48.6,7.9-65.5c5.7-11.2,14.1-20.3,25-27.3c1.5,1,4,1.7,7.7,2.1c-1.1,5.3-2.4,10.3-3.8,14.9l-0.1,0.5l-0.4-2.4
		l-2.9-7c-3.1-1.5-7.5,0.9-13.3,7.2c-4.8,5.2-8,9.8-9.6,13.8l-5.1,11.9c-1.2,3.7-1.7,9-1.3,15.8c0.3,4.8,1,8.4,2.2,10.7
		c1.6,3,4.4,5,8.3,5.9c5.9,1.4,10.4-0.4,13.4-5.5c2.6-4.5,3.4-9.5,2.4-15.1c-0.7-4.1-0.7-8.1,0-12.2c2.9,2.9,6.6,5.7,11.3,8.5
		c5.5,3.3,10.4,5.3,14.8,6.2c5.2,1.1,8.8,0.2,11-2.5c0.9-1.1,1.6-2.8,2.3-5.1c0.1-0.7,0.3-1.3,0.6-1.9c0.6-2.4,1.1-5.3,1.6-8.7
		l2.3-23.7c0.5-5.1,1.1-9.6,1.7-13.5c7.9-1,14.5-2.1,19.9-3.4c13.8-3.2,23-6.4,27.6-9.5L-129.2,320.9 M-102.4,407.4l2.2-1.6
		c0.8-0.6,2.3-1.3,4.4-2.1l5.8-2.2c4.8-2.2,7.5-5.1,8.1-8.7l1.5-10.3c0-2.2-1.1-5.1-3.2-8.6l-7.2-12.8c-0.4-0.7-1.1-3-2.1-7
		l-0.8-2.5c-0.7-1.6-1.6-2.7-2.6-3.2c-1.2-0.6-2.5-2-3.9-4.3c-1.6-2.4-2.8-4-3.8-4.7l-13.1-6.7c-1.3-0.2-2.9,0-4.8,0.5
		c-1,0.3-2.1,0.7-3.3,1.2l-10,4.2l-5.7,1.1c-2.4,0.5-4.1,1.2-5.1,2.3c-0.6,0.7-2.3,1.6-4.9,2.7l-4.4,1.8c-1.1,0.6-2.5,1.3-4.1,1.8
		c-1.2,0.6-2.2,1.6-3,2.9c-1.4,2.3-1.9,4.9-1.6,7.8c0.4,3.1,0.4,4.9,0.2,5.5c-0.3,0.6-0.5,1.3-0.7,2.1l-0.3,1.5l-0.3,2l-0.5,5.6
		l-1.1,6.6c-0.4,2.8-0.6,5-0.5,6.7c0.3,5.3,0.6,9.2,0.9,11.7l0.3,2.7c1,5.9,2.9,10.2,5.7,12.8c2.7,2.5,8.5,4.1,17.5,4.6
		c7.5,0.5,13,0.4,16.6-0.4c1.9-0.4,5.7-2.3,11.4-5.5c0,1.5,0.3,2.9,0.9,4.2c1,2,2.5,3.2,4.4,3.6c1.9,0.4,3.7-0.1,5.4-1.4
		c1.8-1.4,2.9-3.2,3.4-5.6c0.5-2.3,0.3-4.5-0.7-6.5L-102.4,407.4"/>
	<path class="st3" d="M-102.4,407.4c-0.9-0.9-1.9-1.5-3.2-1.8c-1.9-0.4-3.7,0-5.4,1.4c-1.7,1.4-2.8,3.2-3.3,5.5
		c-0.2,0.8-0.3,1.5-0.3,2.2c-5.8,3.3-9.6,5.1-11.4,5.5c-3.6,0.8-9.1,0.9-16.6,0.4c-9-0.6-14.9-2.1-17.5-4.6
		c-2.8-2.6-4.8-6.9-5.7-12.8l-0.3-2.7c-0.3-2.5-0.6-6.4-0.9-11.7c-0.1-1.7,0-3.9,0.5-6.7l1.1-6.6l0.5-5.6l0.3-2l0.3-1.5
		c0.2-0.8,0.4-1.5,0.7-2.1c0.3-0.6,0.2-2.4-0.2-5.5c-0.4-2.9,0.2-5.5,1.6-7.8c0.8-1.4,1.8-2.3,3-2.9c1.6-0.6,2.9-1.2,4.1-1.8
		l4.4-1.8c2.6-1.1,4.2-2,4.9-2.7c1-1.1,2.7-1.8,5.1-2.3l5.7-1.1l10-4.2c1.2-0.5,2.3-0.9,3.3-1.2c1.9-0.5,3.5-0.7,4.8-0.5l13.1,6.7
		c1,0.7,2.3,2.3,3.8,4.7c1.4,2.3,2.7,3.7,3.9,4.3c1.1,0.5,2,1.6,2.6,3.2l0.8,2.5c1,4,1.7,6.4,2.1,7l7.2,12.8
		c2.1,3.5,3.2,6.4,3.2,8.6l-1.5,10.3c-0.6,3.6-3.3,6.5-8.1,8.7l-5.8,2.2c-2.1,0.8-3.6,1.5-4.4,2.1L-102.4,407.4 M-125.6,286.3
		c-0.8,3-2.8,5.8-6.2,8.4c-1.8,1.4-4.6,2.6-8.4,3.5l-29.3,3.9l-7.9-0.5c-2.9-0.7-5.1-2.1-6.6-4.2l-4-4.5c-1.1-1.4-1.6-3.1-1.5-5
		l-0.8-7.4c-0.3-3,0.2-5.2,1.6-6.8c1.8-2.1,4.4-4.4,7.7-6.8c1.4-1,2.7-1.9,3.9-2.6c-0.9,2.1-1.1,4.4-0.5,6.9c0.7,2.8,2.1,5,4.2,6.5
		c2.1,1.6,4.4,2.1,6.7,1.5c2.3-0.6,4.1-2,5.3-4.4c1.2-2.4,1.5-4.9,0.8-7.7c-0.6-2.7-2-4.9-4.1-6.5c-0.6-0.4-1.2-0.8-1.8-1.1l1.4-0.5
		c3.9-1.3,6.3-2.2,7.2-2.6c1-0.5,4.2-0.5,9.8,0.1l8.1,1l2.4,0.8l-0.6,0.1c-1.8,0.5-3.2,1.7-4.1,3.7c-0.9,2-1,4.2-0.4,6.6
		s1.8,4.3,3.5,5.7c1.8,1.4,3.6,1.8,5.4,1.3c1.8-0.5,3.2-1.7,4.1-3.7c0.9-2,1-4.2,0.4-6.6c-0.5-1.9-1.4-3.5-2.6-4.8
		c0.9,0.5,1.5,1,1.8,1.5c4.1,5.6,5.9,10.2,5.4,13.6l-0.8,8.3l-6.7-0.4l2.2-1.9l3.2-3.6c-9.4,7-21.5,9.7-36.3,8.1
		c-7.4-0.8-13.8-2.3-19.3-4.5c16.2,9.1,30.3,11.2,42.4,6.4c2.7-1.1,5.1-2.4,7.4-4.1l-0.4,0.8c0,0.6,0.2,0.9,0.7,1.1L-125.6,286.3
		 M-119.3,340.5c-0.9-1.4-2-2.5-3.2-3.3l-1.8-0.9c-2.1-0.7-3.9-0.6-5.6,0.5c-1.7,1-2.7,2.6-2.9,4.7c-0.3,2.2,0.1,4.3,1.4,6.3
		c1.2,2,2.9,3.4,4.9,4.1c2.1,0.7,3.9,0.6,5.6-0.4c1.2-0.7,2.1-1.8,2.6-3.2l0.4-1.6C-117.6,344.7-118.1,342.6-119.3,340.5
		 M-119,370.9c-1.6,2.5-2.2,5.4-1.8,8.8c0.4,3.3,1.7,5.9,3.9,7.9c2.2,2.1,4.7,2.9,7.4,2.6c2.7-0.3,4.8-1.8,6.4-4.3
		c1.6-2.6,2.2-5.5,1.8-8.7c-0.4-3.3-1.7-5.9-4-8c-2.2-2.1-4.6-2.9-7.4-2.6C-115.2,367-117.4,368.4-119,370.9 M-217.2,352
		c-2.9,9-5.9,14.4-8.9,16.2c-1.6,1-0.9,3.1,2.2,6.3l0.6,0.7c-0.7,4.1-0.7,8.1,0,12.2c1,5.5,0.2,10.6-2.4,15.1
		c-3.1,5.1-7.5,7-13.4,5.5c-3.9-1-6.6-2.9-8.3-5.9c-1.2-2.4-2-6-2.2-10.7c-0.4-6.8,0-12,1.3-15.8l5.1-11.9c1.6-4,4.8-8.6,9.6-13.8
		c5.8-6.3,10.2-8.6,13.3-7.2l2.9,7L-217.2,352"/>
	<path class="st4" d="M-114.3,218.8l0.4-1l0.1,4.4c-0.1,3.6-0.6,7-1.4,10.4c-2.6,10.8-8.3,18.7-17,23.6l-0.3-0.3
		c-2.8-2.5-5.3-4.5-7.5-6c-4.1-2.8-8.9-4.1-14.2-3.8c-15.1,0.7-29.2,3.9-42.5,9.4c-20.7,8.5-29.9,20.7-27.8,36.5
		c-3.9-0.5-7.5-1.9-11-4.2c-4.5-3.1-8.4-7.7-11.5-13.6c-1.8-4.3-2.2-8.6-1.1-13c1.1-4.7,3.8-8.8,8-12.4c10.1-8.5,26.3-11.7,48.7-9.6
		c16.3,2.8,32.3,2.4,48-1.4C-127,233.9-117.2,227.6-114.3,218.8 M-132.5,284c-2.3,1.7-4.7,3-7.4,4.1c-12.1,4.8-26.2,2.6-42.4-6.4
		c5.5,2.2,12,3.7,19.3,4.5c14.8,1.6,26.9-1,36.3-8.1l-3.2,3.6l-2.2,1.9h0L-132.5,284L-132.5,284 M-131.7,260.6
		c1.2,1.3,2.1,2.8,2.6,4.8c0.6,2.4,0.5,4.6-0.4,6.6c-0.9,2-2.2,3.3-4.1,3.7c-1.8,0.5-3.6,0-5.4-1.3c-1.7-1.4-2.9-3.3-3.5-5.7
		s-0.5-4.6,0.4-6.6c0.9-2,2.2-3.2,4.1-3.7l0.6-0.1c1.6-0.2,3.2,0.3,4.7,1.5L-131.7,260.6 M-166.3,259.5c0.6,0.3,1.2,0.6,1.8,1.1
		c2.1,1.6,3.5,3.7,4.1,6.5c0.7,2.7,0.4,5.3-0.8,7.7c-1.2,2.3-3,3.8-5.3,4.4c-2.4,0.6-4.6,0.1-6.7-1.5c-2.1-1.6-3.5-3.7-4.2-6.5
		c-0.6-2.5-0.4-4.8,0.5-6.9l0.3-0.7c1.2-2.3,3-3.8,5.3-4.4C-169.6,258.6-167.9,258.8-166.3,259.5"/>
	<path class="st5" d="M-98.1,287.7l-25.3-1.3l-2.2-0.1l-6.6-0.4c-0.5-0.2-0.7-0.5-0.7-1.1l0.4-0.8v0l0.4-0.3h0l6.7,0.4l2.1,0.1
		l25.1,1.4V287.7"/>
	<path class="st6" d="M-98.1,287.7v-2.2l0-9.6c0-2.8,1.1-4.9,3.3-6.2c1.9-1.2,4.5-1.8,7.7-1.8c3.1,0,5.6,0.6,7.4,1.8
		c2,1.4,2.9,3.5,2.9,6.3v12.4c-0.1,3-1.1,5.5-3.2,7.5c-2.1,2.1-4.6,3.1-7.6,3.1c-3,0-5.5-1-7.5-3.1c-2.1-2.1-3.1-4.6-3.1-7.5V287.7
		 M-80.9,270.9c-0.6-0.7-1.6-1.3-2.9-1.7l-2.6-0.4l-3.1,0.2c-1.6,0.1-2.9,0.5-3.8,1.2l-1.3,1.1c-0.3,0.4-0.1,0.8,0.7,1.1l2.1,0.1
		l1.8,0.7l7.7-0.3C-80.7,272.4-80.2,271.7-80.9,270.9"/>
	<path class="st7" d="M-80.9,270.9c0.8,0.9,0.3,1.5-1.5,1.9l-7.7,0.3l-1.8-0.7l-2.1-0.1c-0.7-0.3-1-0.6-0.7-1.1l1.3-1.1
		c0.9-0.6,2.2-1,3.8-1.2l3.1-0.2l2.6,0.4C-82.6,269.6-81.6,270.1-80.9,270.9"/>
	<path class="st8" d="M-237.9,231.5c-0.6-2.4-3.2-6.2-7.7-11.2c-6.3-7-10-11.3-11.1-12.8c-4.6-10.4-3.5-21.2,3.3-32.4
		c6.3-10.2,16-18.7,29-25.5c13.2-6.9,26.4-10.1,39.5-9.7c14.6,0.5,26.3,5.6,35,15.3c-0.8,24.1,0.2,43.8,2.9,59
		c-18.5-5.4-35.8-4.7-51.8,2.2c-8,3.4-14.2,7.4-18.5,12c-7.5-0.4-14.4,0.7-20.6,3.3L-237.9,231.5 M-143.7,225.5
		c2.2-0.9,4.3-2,6.3-3.4c1.3-0.9,2.5-2,3.7-3.1l8.1-8.6c2.8,6.4,1.7,11.6-3.2,15.5c-2.6,2.1-6.7,4.3-12.2,6.6l0.2-0.1
		C-141.3,232.4-142.2,230.1-143.7,225.5 M-192.4,233l2.6,0.5l1.1,0.3L-192.4,233 M-143.6,233.4l2.2-0.9l0.1,0.1L-143.6,233.4"/>
	<path class="st9" d="M-143.6,233.4l-0.5,0.2c-3,1-6.2,1.8-9.7,2.4c-10.9,1.8-22.6,1-35-2.3l-1.1-0.3l-2.6-0.5l-23.8-4.4l-0.1,0
		l-0.8,0h-0.2c4.3-4.5,10.5-8.5,18.5-12c16-6.9,33.3-7.7,51.8-2.2h0.1l2.5,9.1l0.7,2.2c1.5,4.6,2.5,6.9,2.9,6.8l-0.2,0.1l-0.4,0.2
		L-143.6,233.4"/>
	<path class="st10" d="M-143.6,233.4l2.2-0.7l-0.1-0.1l0.4-0.2c5.5-2.3,9.5-4.5,12.2-6.6c4.9-3.9,5.9-9.1,3.2-15.5l-8.1,8.6
		c-1.2,1.1-2.5,2.2-3.7,3.1l4.5-4.1l7.8-8.4c5.4,3.6,9.1,6.2,11.1,8.1l-0.3,1.1c-2.9,8.8-12.7,15.1-29.2,19
		c-15.7,3.8-31.7,4.2-48,1.4c-22.3-2.1-38.5,1.1-48.7,9.6c-4.2,3.5-6.9,7.6-8,12.4c-1.1,4.4-0.7,8.8,1.1,13
		c3.1,6,6.9,10.5,11.5,13.6c3.5,2.3,7.1,3.7,11,4.2l0.6,0l-1.7,1.5c-2.7,1.8-7,1.9-12.8,0.3c-6.6-1.8-11.3-4.5-14.1-7.8
		c-6.4-7.2-9.4-15.3-9.2-24.3c0.3-10.8,5.8-19.5,16.6-25.9l7.4-4.3l0,0.2c6.2-2.6,13.1-3.7,20.6-3.3h0.2l0.8,0l0.1,0l23.8,4.4
		l3.6,0.8c12.4,3.3,24,4.1,35,2.3c3.5-0.6,6.7-1.4,9.7-2.4L-143.6,233.4"/>
	<path class="st11" d="M-119.3,340.5c1.2,2.1,1.7,4.2,1.4,6.3l-0.4,1.6c-0.5,1.4-1.4,2.4-2.6,3.2c-1.7,1-3.5,1.1-5.6,0.4
		c-2.1-0.7-3.7-2.1-4.9-4.1c-1.3-2.1-1.7-4.2-1.4-6.3c0.3-2.1,1.3-3.7,2.9-4.7c1.7-1.1,3.5-1.2,5.6-0.5l1.8,0.9
		C-121.2,338-120.2,339.1-119.3,340.5 M-114.6,414.8c0-0.7,0.1-1.5,0.3-2.2c0.5-2.3,1.6-4.2,3.3-5.5c1.7-1.3,3.5-1.8,5.4-1.4
		c1.3,0.3,2.3,0.9,3.2,1.8l1.2,1.7c1,2,1.2,4.1,0.7,6.5c-0.5,2.4-1.6,4.2-3.4,5.6c-1.7,1.4-3.5,1.8-5.4,1.4
		c-1.9-0.4-3.4-1.6-4.4-3.6C-114.3,417.7-114.6,416.3-114.6,414.8 M-119,370.9c1.6-2.6,3.7-4,6.4-4.3c2.7-0.4,5.2,0.5,7.4,2.6
		c2.2,2.1,3.6,4.8,4,8c0.4,3.3-0.2,6.2-1.8,8.7c-1.6,2.6-3.7,4-6.4,4.3c-2.7,0.4-5.2-0.5-7.4-2.6c-2.2-2-3.5-4.7-3.9-7.9
		C-121.1,376.4-120.6,373.5-119,370.9"/>
</g>
</svg>
